<svg width="24" height="29" viewBox="0 0 24 29" fill="none" xmlns="http://www.w3.org/2000/svg">
<path d="M12.2057 6.94967C12.1605 4.90565 13.2907 0.654085 18.173 0C18.7154 1.63522 17.088 6.8134 12.2057 6.94967Z" fill="#A5C937"/>
<path d="M7.8659 6.94967C3.37187 6.94967 0 10.7465 0 15.262C0 17.942 1.05784 24.2012 5.28914 27.7987C5.35973 27.8483 5.42923 27.8976 5.49784 27.9463C6.74744 28.8325 7.7076 29.5134 9.76457 28.48C10.6616 28.0294 11.4942 27.8582 12.5448 27.8798C13.5953 27.8582 14.428 28.0294 15.325 28.48C17.3819 29.5134 18.3421 28.8325 19.5917 27.9463C19.6313 27.9182 19.6711 27.89 19.7113 27.8615C19.7408 27.8407 19.7705 27.8197 19.8004 27.7987C21.8881 26.0237 23.2033 23.6007 24 21.2794C21.8345 20.217 20.3429 17.9827 20.3429 15.3983C20.3429 13.1107 21.5116 11.0974 23.2818 9.92839C21.8635 8.11763 19.7161 6.94967 17.2236 6.94967C16.7263 6.99509 15.5691 7.1677 14.9181 7.49475C14.1044 7.90355 12.9516 8.17609 12.5448 8.17609C12.1379 8.17609 10.9851 7.90355 10.1714 7.49475C9.52045 7.1677 8.36318 6.99509 7.8659 6.94967Z" fill="#A5C937"/>
</svg>
