<svg width="68" height="68" viewBox="0 0 68 68" fill="none" xmlns="http://www.w3.org/2000/svg">
<g filter="url(#filter0_d_13807_209)">
<rect x="2" y="1" width="64" height="64" rx="32" fill="white" shape-rendering="crispEdges"/>
<rect x="2.5" y="1.5" width="63" height="63" rx="31.5" stroke="#DAE0E6" shape-rendering="crispEdges"/>
<path fill-rule="evenodd" clip-rule="evenodd" d="M24.3732 24.219C26.7717 21.621 29.8868 19.9909 33.9631 19.9909C40.484 19.9909 44.1478 24.3272 46.1715 28.6923C47.9503 32.5292 48.5971 36.6568 48.8842 38.4882C48.9216 38.7273 48.953 38.9272 48.9799 39.0823C49.0207 39.3177 48.9991 39.5596 48.9172 39.784C48.1812 41.7991 46.3266 43.2699 44.1936 44.2504C42.0242 45.2477 39.3541 45.8417 36.6154 45.9787C31.2276 46.2482 25.0211 44.7533 21.8287 40.31C21.2794 39.5455 21.5686 39.2514 21.6763 38.9919L21.6794 38.9845C21.6812 38.9801 21.6837 38.974 21.687 38.9662C21.6935 38.9507 21.7028 38.9285 21.7149 38.9001C21.739 38.8432 21.774 38.7614 21.8189 38.6583C21.9088 38.4522 22.0387 38.1601 22.2012 37.8111C22.5249 37.1159 22.9837 36.1821 23.5173 35.2479C24.0435 34.3266 24.676 33.3449 25.3559 32.5907C25.6955 32.214 26.0881 31.8474 26.5279 31.5776C26.9649 31.3096 27.548 31.0778 28.2169 31.1471C29.9034 31.3219 30.9962 32.6217 31.6232 33.3676L31.6368 33.3837C31.6873 33.4437 31.7352 33.5009 31.7808 33.5554C32.068 33.8982 32.2671 34.1358 32.4599 34.3125C32.4989 34.2731 32.5424 34.2271 32.5902 34.1737C32.8998 33.828 33.2673 33.3138 33.6597 32.6895C34.4383 31.4506 35.207 29.9519 35.6742 28.9519C35.9926 28.2703 36.8023 27.9763 37.4827 28.2953C38.1632 28.6143 38.4566 29.4255 38.1382 30.1071C37.6408 31.1717 36.8192 32.7774 35.9619 34.1415C35.5363 34.8187 35.0743 35.4808 34.6155 35.9933C34.3869 36.2486 34.1275 36.5028 33.8436 36.7055C33.5795 36.8941 33.1657 37.1317 32.6484 37.1585C31.7523 37.2049 31.0812 36.7341 30.6649 36.3607C30.3075 36.0402 29.9614 35.6251 29.6811 35.289C29.6378 35.237 29.5961 35.187 29.5561 35.1395C28.8654 34.318 28.4369 33.9451 28.0087 33.8681C27.9937 33.8756 27.9736 33.8864 27.9484 33.9019C27.8126 33.9852 27.6185 34.1471 27.3749 34.4173C26.8886 34.9568 26.3695 35.7419 25.8786 36.6014C25.3951 37.4479 24.9713 38.3088 24.6667 38.9631C24.6088 39.0874 24.5554 39.2038 24.507 39.3107C27.0512 42.2261 31.7753 43.4921 36.4797 43.2568C38.9408 43.1337 41.2604 42.6003 43.0589 41.7735C44.7167 41.0114 45.7678 40.0806 46.2332 39.1467C46.22 39.0642 46.2062 38.9771 46.1917 38.8855C45.8949 37.0129 45.3057 33.295 43.7041 29.8402C41.8944 25.9365 38.9672 22.7162 33.9631 22.7162C30.7188 22.7162 28.3063 23.9726 26.3705 26.0694C24.3903 28.2144 22.8948 31.2599 21.6434 34.814C21.3935 35.5237 20.6166 35.8961 19.9081 35.6457C19.1997 35.3954 18.8279 34.6171 19.0778 33.9074C20.3738 30.227 22.0192 26.769 24.3732 24.219Z" fill="#737885"/>
</g>
<defs>
<filter id="filter0_d_13807_209" x="0" y="0" width="68" height="68" filterUnits="userSpaceOnUse" color-interpolation-filters="sRGB">
<feFlood flood-opacity="0" result="BackgroundImageFix"/>
<feColorMatrix in="SourceAlpha" type="matrix" values="0 0 0 0 0 0 0 0 0 0 0 0 0 0 0 0 0 0 127 0" result="hardAlpha"/>
<feOffset dy="1"/>
<feGaussianBlur stdDeviation="1"/>
<feComposite in2="hardAlpha" operator="out"/>
<feColorMatrix type="matrix" values="0 0 0 0 0.0627451 0 0 0 0 0.0941176 0 0 0 0 0.156863 0 0 0 0.04 0"/>
<feBlend mode="normal" in2="BackgroundImageFix" result="effect1_dropShadow_13807_209"/>
<feBlend mode="normal" in="SourceGraphic" in2="effect1_dropShadow_13807_209" result="shape"/>
</filter>
</defs>
</svg>
