<svg width="92" height="92" viewBox="0 0 92 92" fill="none" xmlns="http://www.w3.org/2000/svg">
<g filter="url(#filter0_d_13807_182)">
<rect x="2" y="1" width="88" height="88" rx="44" fill="white" shape-rendering="crispEdges"/>
<rect x="2.5" y="1.5" width="87" height="87" rx="43.5" stroke="#DAE0E6" shape-rendering="crispEdges"/>
<path d="M66.9542 45C66.9542 56.5979 57.5727 66 46 66C34.4273 66 25.0457 56.5979 25.0457 45C25.0457 33.4019 34.4273 24 46 24C57.5727 24 66.9542 33.4019 66.9542 45Z" fill="white"/>
<path d="M46 24C34.4273 24 25.0457 33.4019 25.0457 45C25.0457 53.8967 30.5665 61.4995 38.3613 64.5593C38.1782 62.8978 38.0126 60.3425 38.4339 58.5286C38.8147 56.8897 40.8911 48.0903 40.8911 48.0903C40.8911 48.0903 40.2643 46.8322 40.2643 44.9724C40.2643 42.0524 41.9531 39.8723 44.0559 39.8723C45.8436 39.8723 46.7071 41.2175 46.7071 42.8304C46.7071 44.6323 45.5625 47.3261 44.9717 49.8225C44.4781 51.9127 46.0176 53.6172 48.0747 53.6172C51.799 53.6172 54.6618 49.6817 54.6618 44.0008C54.6618 38.9727 51.0568 35.4572 45.9091 35.4572C39.9469 35.4572 36.4473 39.939 36.4473 44.5706C36.4473 46.3755 37.141 48.3109 38.0067 49.3631C38.178 49.571 38.2031 49.7532 38.1521 49.9654C37.993 50.6287 37.6395 52.055 37.5701 52.347C37.4787 52.7314 37.2664 52.813 36.8693 52.6278C34.2523 51.4069 32.616 47.5723 32.616 44.4923C32.616 37.8679 37.4186 31.7842 46.4613 31.7842C53.7303 31.7842 59.3792 36.9754 59.3792 43.9129C59.3792 51.1503 54.8259 56.9749 48.5059 56.9749C46.3825 56.9749 44.3864 55.8694 43.7031 54.5635C43.7031 54.5635 42.6524 58.573 42.3976 59.5556C41.9246 61.3797 40.6475 63.666 39.7933 65.0609C41.7539 65.6693 43.8398 66 46 66C57.5727 66 66.9542 56.5979 66.9542 45C66.9542 33.4019 57.5727 24 46 24Z" fill="#E60023"/>
</g>
<defs>
<filter id="filter0_d_13807_182" x="0" y="0" width="92" height="92" filterUnits="userSpaceOnUse" color-interpolation-filters="sRGB">
<feFlood flood-opacity="0" result="BackgroundImageFix"/>
<feColorMatrix in="SourceAlpha" type="matrix" values="0 0 0 0 0 0 0 0 0 0 0 0 0 0 0 0 0 0 127 0" result="hardAlpha"/>
<feOffset dy="1"/>
<feGaussianBlur stdDeviation="1"/>
<feComposite in2="hardAlpha" operator="out"/>
<feColorMatrix type="matrix" values="0 0 0 0 0.0627451 0 0 0 0 0.0941176 0 0 0 0 0.156863 0 0 0 0.04 0"/>
<feBlend mode="normal" in2="BackgroundImageFix" result="effect1_dropShadow_13807_182"/>
<feBlend mode="normal" in="SourceGraphic" in2="effect1_dropShadow_13807_182" result="shape"/>
</filter>
</defs>
</svg>
