<svg width="124" height="124" viewBox="0 0 124 124" fill="none" xmlns="http://www.w3.org/2000/svg">
<g filter="url(#filter0_d_13807_176)">
<rect x="2" y="1" width="120" height="120" rx="60" fill="white" shape-rendering="crispEdges"/>
<rect x="2.5" y="1.5" width="119" height="119" rx="59.5" stroke="#DAE0E6" shape-rendering="crispEdges"/>
<path d="M79.911 44.3981C79.8736 44.1254 79.6354 43.9741 79.4376 43.9576C79.2414 43.9411 75.3972 43.8827 75.3972 43.8827C75.3972 43.8827 72.1821 40.7606 71.8645 40.443C71.547 40.1254 70.9267 40.2212 70.6855 40.2932C70.6855 40.2932 70.0818 40.4804 69.0705 40.7935C68.9013 40.2452 68.6525 39.571 68.2974 38.8939C67.1529 36.7096 65.4765 35.5545 63.4509 35.5515H63.4435C63.3026 35.5515 63.1633 35.565 63.0225 35.577C62.9626 35.5051 62.9027 35.4347 62.8398 35.3658C61.9573 34.4219 60.8263 33.962 59.4704 34.0025C56.8547 34.0774 54.2494 35.9665 52.137 39.3224C50.6509 41.6834 49.5198 44.6498 49.1992 46.9464C46.1954 47.8767 44.095 48.5269 44.0485 48.5419C42.5324 49.0183 42.4845 49.0647 42.2867 50.494C42.1399 51.5741 38.1728 82.2502 38.1728 82.2502L71.4181 88L85.8272 84.4179C85.8272 84.4179 79.9485 44.6708 79.911 44.3981ZM67.4061 41.3089C66.6405 41.5456 65.7701 41.8153 64.8262 42.1074C64.8068 40.783 64.6495 38.9403 64.0323 37.3478C66.0173 37.7238 66.9941 39.9696 67.4061 41.3089ZM63.0869 42.6467C61.3446 43.186 59.4434 43.7748 57.5363 44.3651C58.0726 42.3111 59.0899 40.2662 60.3394 38.9253C60.8038 38.4265 61.4539 37.8707 62.224 37.553C62.9476 39.0632 63.1049 41.201 63.0869 42.6467ZM59.5228 35.7433C60.1371 35.7298 60.6539 35.8646 61.0959 36.1553C60.3888 36.5223 59.7056 37.0497 59.0644 37.7373C57.4029 39.5201 56.1295 42.2872 55.6217 44.9569C54.0381 45.4467 52.489 45.9277 51.0628 46.3682C51.9633 42.1658 55.4853 35.8601 59.5228 35.7433Z" fill="#95BF47"/>
<path d="M79.4376 43.9576C79.2414 43.9411 75.3972 43.8827 75.3972 43.8827C75.3972 43.8827 72.1821 40.7606 71.8645 40.443C71.7462 40.3246 71.5874 40.2647 71.4195 40.2392L71.4211 87.9986L85.8272 84.4179C85.8272 84.4179 79.9485 44.6708 79.911 44.3981C79.8736 44.1254 79.6354 43.9741 79.4376 43.9576Z" fill="#5E8E3E"/>
<path d="M63.4329 51.3675L61.7596 57.6282C61.7596 57.6282 59.8929 56.7787 57.6801 56.918C54.4351 57.1233 54.4006 59.1698 54.4337 59.6837C54.6104 62.4836 61.9767 63.0949 62.3903 69.6538C62.7154 74.8134 59.6531 78.343 55.2411 78.6216C49.9452 78.9557 47.0298 75.8321 47.0298 75.8321L48.1519 71.059C48.1519 71.059 51.0867 73.2733 53.4358 73.125C54.97 73.0276 55.5183 71.7797 55.4628 70.8972C55.2321 67.2447 49.2336 67.4605 48.8546 61.4589C48.5354 56.4087 51.8524 51.2911 59.1707 50.8296C61.9902 50.6484 63.4329 51.3675 63.4329 51.3675Z" fill="white"/>
</g>
<defs>
<filter id="filter0_d_13807_176" x="0" y="0" width="124" height="124" filterUnits="userSpaceOnUse" color-interpolation-filters="sRGB">
<feFlood flood-opacity="0" result="BackgroundImageFix"/>
<feColorMatrix in="SourceAlpha" type="matrix" values="0 0 0 0 0 0 0 0 0 0 0 0 0 0 0 0 0 0 127 0" result="hardAlpha"/>
<feOffset dy="1"/>
<feGaussianBlur stdDeviation="1"/>
<feComposite in2="hardAlpha" operator="out"/>
<feColorMatrix type="matrix" values="0 0 0 0 0.0627451 0 0 0 0 0.0941176 0 0 0 0 0.156863 0 0 0 0.04 0"/>
<feBlend mode="normal" in2="BackgroundImageFix" result="effect1_dropShadow_13807_176"/>
<feBlend mode="normal" in="SourceGraphic" in2="effect1_dropShadow_13807_176" result="shape"/>
</filter>
</defs>
</svg>
