<svg width="124" height="124" viewBox="0 0 124 124" fill="none" xmlns="http://www.w3.org/2000/svg">
<g filter="url(#filter0_d_13807_240)">
<rect x="2" y="1" width="120" height="120" rx="60" fill="white" shape-rendering="crispEdges"/>
<rect x="2.5" y="1.5" width="119" height="119" rx="59.5" stroke="#DAE0E6" shape-rendering="crispEdges"/>
<path d="M72.8224 34L70.3265 57.7994L66.0712 37.734L52.6506 40.5653L56.865 60.6307L37.5524 64.734L40.9894 80.7371L74.991 88L82.7651 70.5608L86.4476 35.4362L72.8224 34ZM62.0614 68.5502C61.3658 69.2067 60.4656 69.1246 59.4427 68.7964C58.4607 68.4681 58.0515 67.3191 58.3789 65.8419C58.6653 64.7751 59.9337 64.6109 60.6293 64.6109C60.8748 64.6109 61.1203 64.652 61.3658 64.7751C61.8159 64.9802 62.5933 65.4316 62.7569 66.0882C63.0024 67.073 62.757 67.8936 62.0614 68.5502ZM71.9223 69.617C71.3903 70.5198 70.081 70.6429 68.7308 69.9863C67.8306 69.535 67.8306 68.4681 67.9534 67.7705C67.9943 67.4012 68.1579 67.0319 68.4034 66.7447C68.7308 66.3344 69.2627 65.8009 69.8355 65.8009C70.8584 65.7599 71.6768 66.2112 72.1678 67.0319C72.6587 67.8526 72.4132 68.7553 71.9223 69.617Z" fill="#00CCBC"/>
</g>
<defs>
<filter id="filter0_d_13807_240" x="0" y="0" width="124" height="124" filterUnits="userSpaceOnUse" color-interpolation-filters="sRGB">
<feFlood flood-opacity="0" result="BackgroundImageFix"/>
<feColorMatrix in="SourceAlpha" type="matrix" values="0 0 0 0 0 0 0 0 0 0 0 0 0 0 0 0 0 0 127 0" result="hardAlpha"/>
<feOffset dy="1"/>
<feGaussianBlur stdDeviation="1"/>
<feComposite in2="hardAlpha" operator="out"/>
<feColorMatrix type="matrix" values="0 0 0 0 0.0627451 0 0 0 0 0.0941176 0 0 0 0 0.156863 0 0 0 0.04 0"/>
<feBlend mode="normal" in2="BackgroundImageFix" result="effect1_dropShadow_13807_240"/>
<feBlend mode="normal" in="SourceGraphic" in2="effect1_dropShadow_13807_240" result="shape"/>
</filter>
</defs>
</svg>
