<svg width="124" height="124" viewBox="0 0 124 124" fill="none" xmlns="http://www.w3.org/2000/svg">
<g filter="url(#filter0_d_13807_231)">
<rect x="2" y="1" width="120" height="120" rx="60" fill="white" shape-rendering="crispEdges"/>
<rect x="2.5" y="1.5" width="119" height="119" rx="59.5" stroke="#DAE0E6" shape-rendering="crispEdges"/>
<path fill-rule="evenodd" clip-rule="evenodd" d="M46.7808 38.3835L61.998 36.7893L77.2162 38.3835L88.9981 54.0554L61.9991 85.2106L35 54.0554L46.7808 38.3835Z" fill="#FDB300"/>
<path fill-rule="evenodd" clip-rule="evenodd" d="M45.9364 54.2437L61.9991 85.2106L35 54.2437H45.9364Z" fill="#EA6C00"/>
<path fill-rule="evenodd" clip-rule="evenodd" d="M78.0647 54.2437L61.9991 85.2106L89 54.2437H78.0647Z" fill="#EA6C00"/>
<path fill-rule="evenodd" clip-rule="evenodd" d="M45.6915 54.2437H77.753L61.7222 85.2105L45.6915 54.2437Z" fill="#FDAD00"/>
<path fill-rule="evenodd" clip-rule="evenodd" d="M61.4411 36.7893L46.5199 38.4005L45.6915 54.2437L61.4411 36.7893Z" fill="#FDD231"/>
<path fill-rule="evenodd" clip-rule="evenodd" d="M61.998 36.7893L76.9157 38.4005L77.753 54.2437L61.998 36.7893Z" fill="#FDD231"/>
<path fill-rule="evenodd" clip-rule="evenodd" d="M89 54.2437L77.1873 38.4756L78.0349 54.2412L89 54.2437Z" fill="#FDAD00"/>
<path fill-rule="evenodd" clip-rule="evenodd" d="M35 54.2437L46.8117 38.4756L45.964 54.2412L35 54.2437Z" fill="#FDAD00"/>
<path fill-rule="evenodd" clip-rule="evenodd" d="M61.7222 36.7893L45.6915 54.2437H77.753L61.7222 36.7893Z" fill="#FEEEB7"/>
</g>
<defs>
<filter id="filter0_d_13807_231" x="0" y="0" width="124" height="124" filterUnits="userSpaceOnUse" color-interpolation-filters="sRGB">
<feFlood flood-opacity="0" result="BackgroundImageFix"/>
<feColorMatrix in="SourceAlpha" type="matrix" values="0 0 0 0 0 0 0 0 0 0 0 0 0 0 0 0 0 0 127 0" result="hardAlpha"/>
<feOffset dy="1"/>
<feGaussianBlur stdDeviation="1"/>
<feComposite in2="hardAlpha" operator="out"/>
<feColorMatrix type="matrix" values="0 0 0 0 0.0627451 0 0 0 0 0.0941176 0 0 0 0 0.156863 0 0 0 0.04 0"/>
<feBlend mode="normal" in2="BackgroundImageFix" result="effect1_dropShadow_13807_231"/>
<feBlend mode="normal" in="SourceGraphic" in2="effect1_dropShadow_13807_231" result="shape"/>
</filter>
</defs>
</svg>
