<svg width="92" height="92" viewBox="0 0 92 92" fill="none" xmlns="http://www.w3.org/2000/svg">
<g filter="url(#filter0_d_13807_197)">
<rect x="2" y="1" width="88" height="88" rx="44" fill="white" shape-rendering="crispEdges"/>
<rect x="2.5" y="1.5" width="87" height="87" rx="43.5" stroke="#DAE0E6" shape-rendering="crispEdges"/>
<path d="M66.9868 44.1267C67.0453 45.2749 66.9088 46.4036 66.5773 47.5129C66.2653 48.6027 65.7779 49.6535 65.1344 50.5877C64.491 51.5412 63.6915 52.378 62.7751 53.0591L62.7556 53.0786L54.0008 59.6368L49.6721 62.9062L47.0593 64.8912C46.9033 65.0079 46.7343 65.0923 46.5523 65.1442C46.3704 65.209 46.1819 65.2415 45.9869 65.2415C45.7919 65.2415 45.6034 65.209 45.4214 65.1442C45.2394 65.0923 45.077 65.0079 44.934 64.8912L42.3017 62.9062L37.9925 59.6368L29.2962 53.1175L29.2572 53.0786L29.2182 53.0591C28.3212 52.378 27.5218 51.5412 26.8784 50.5877C26.2154 49.6535 25.7279 48.6027 25.416 47.5129C25.104 46.4036 24.9675 45.2749 25.0065 44.1267C25.065 42.9786 25.299 41.8499 25.7084 40.7795L25.7669 40.6433L31.48 25.717C31.506 25.6392 31.5385 25.5678 31.5775 25.503C31.6165 25.4381 31.662 25.3732 31.714 25.3084C31.766 25.2435 31.818 25.1851 31.87 25.1332C31.935 25.0813 32 25.0359 32.065 24.997C32.2599 24.8802 32.4939 24.8024 32.7279 24.7635C32.9619 24.744 33.1959 24.7829 33.4104 24.8608C33.6443 24.9386 33.8393 25.0748 33.9953 25.25C34.1513 25.4251 34.2683 25.6392 34.3268 25.8727L38.1875 37.6853H53.8058L57.6665 25.8727C57.7445 25.6392 57.842 25.4251 58.0175 25.25C58.1735 25.0748 58.3684 24.9386 58.5829 24.8608C58.8169 24.7829 59.0509 24.744 59.2849 24.7635C59.5189 24.8024 59.7333 24.8802 59.9478 24.997C60.0128 25.0359 60.0713 25.0813 60.1233 25.1332C60.1883 25.1851 60.2468 25.2435 60.2988 25.3084L60.4158 25.503C60.4548 25.5678 60.4938 25.6392 60.5328 25.717L66.2458 40.6238L66.3043 40.7795C66.7138 41.8499 66.9478 42.9786 66.9868 44.1267Z" fill="#E24329"/>
<path d="M66.9868 44.1267C67.0453 45.2749 66.9087 46.4038 66.5967 47.513C66.2653 48.6028 65.7779 49.6535 65.1344 50.5877C64.491 51.5412 63.6915 52.378 62.7751 53.0591L62.7556 53.0786L54.0008 59.6368L46.0063 53.5847L58.5634 44.088C59.1223 43.6598 59.7073 43.2706 60.3182 42.9203C60.9292 42.5571 61.5596 42.2327 62.2096 41.9473C62.8595 41.6489 63.5225 41.3894 64.1984 41.1689C64.8614 40.9483 65.5439 40.7666 66.2458 40.6238L66.3043 40.7795C66.7138 41.8499 66.9478 42.9786 66.9868 44.1267Z" fill="#FC6D26"/>
<path d="M46.0063 53.5847L54.0008 59.6368L49.6721 62.9062L47.0593 64.8912C46.9033 65.0079 46.7343 65.0923 46.5523 65.1442C46.3704 65.209 46.1819 65.2415 45.9869 65.2415C45.7919 65.2415 45.6034 65.209 45.4214 65.1442C45.2394 65.0923 45.077 65.0079 44.934 64.8912L42.3017 62.9062L37.9925 59.6368L46.0063 53.5847Z" fill="#FCA326"/>
<path d="M45.9869 53.5851L37.9925 59.6368L29.2962 53.1175L29.2572 53.0786L29.2182 53.0591C28.3212 52.378 27.5218 51.5412 26.8784 50.5877C26.2154 49.6535 25.7279 48.6027 25.416 47.5129C25.104 46.4036 24.9675 45.2749 25.0065 44.1267C25.065 42.9786 25.299 41.8499 25.7084 40.7795L25.7669 40.6433C26.4559 40.786 27.1383 40.9617 27.8143 41.1692C28.4902 41.3898 29.1532 41.6493 29.8031 41.9477C30.4401 42.2331 31.064 42.5574 31.675 42.9207C32.2859 43.2839 32.8774 43.6732 33.4494 44.0883L45.9869 53.5851Z" fill="#FC6D26"/>
</g>
<defs>
<filter id="filter0_d_13807_197" x="0" y="0" width="92" height="92" filterUnits="userSpaceOnUse" color-interpolation-filters="sRGB">
<feFlood flood-opacity="0" result="BackgroundImageFix"/>
<feColorMatrix in="SourceAlpha" type="matrix" values="0 0 0 0 0 0 0 0 0 0 0 0 0 0 0 0 0 0 127 0" result="hardAlpha"/>
<feOffset dy="1"/>
<feGaussianBlur stdDeviation="1"/>
<feComposite in2="hardAlpha" operator="out"/>
<feColorMatrix type="matrix" values="0 0 0 0 0.0627451 0 0 0 0 0.0941176 0 0 0 0 0.156863 0 0 0 0.04 0"/>
<feBlend mode="normal" in2="BackgroundImageFix" result="effect1_dropShadow_13807_197"/>
<feBlend mode="normal" in="SourceGraphic" in2="effect1_dropShadow_13807_197" result="shape"/>
</filter>
</defs>
</svg>
