<svg width="73" height="92" viewBox="0 0 73 92" fill="none" xmlns="http://www.w3.org/2000/svg">
<g filter="url(#filter0_d_13807_228)">
<rect x="2" y="1" width="88" height="88" rx="44" fill="white" shape-rendering="crispEdges"/>
<rect x="2.5" y="1.5" width="87" height="87" rx="43.5" stroke="#DAE0E6" shape-rendering="crispEdges"/>
<path fill-rule="evenodd" clip-rule="evenodd" d="M57.8658 46.1396C52.8211 46.1396 48.7316 50.222 48.7316 55.2581C48.7316 60.2939 52.8211 64.3764 57.8658 64.3764C62.9106 64.3764 67 60.2939 67 55.2581C67 50.222 62.9106 46.1396 57.8658 46.1396ZM34.1342 46.1403C29.0896 46.1403 25 50.222 25 55.2581C25 60.2939 29.0896 64.3764 34.1342 64.3764C39.1791 64.3764 43.2689 60.2939 43.2689 55.2581C43.2689 50.222 39.1791 46.1403 34.1342 46.1403ZM55.1341 34.7416C55.1341 39.7778 51.0447 43.8606 46.0001 43.8606C40.9552 43.8606 36.8658 39.7778 36.8658 34.7416C36.8658 29.7064 40.9552 25.6236 46.0001 25.6236C51.0447 25.6236 55.1341 29.7064 55.1341 34.7416Z" fill="#F06A6A"/>
</g>
<defs>
<filter id="filter0_d_13807_228" x="0" y="0" width="92" height="92" filterUnits="userSpaceOnUse" color-interpolation-filters="sRGB">
<feFlood flood-opacity="0" result="BackgroundImageFix"/>
<feColorMatrix in="SourceAlpha" type="matrix" values="0 0 0 0 0 0 0 0 0 0 0 0 0 0 0 0 0 0 127 0" result="hardAlpha"/>
<feOffset dy="1"/>
<feGaussianBlur stdDeviation="1"/>
<feComposite in2="hardAlpha" operator="out"/>
<feColorMatrix type="matrix" values="0 0 0 0 0.0627451 0 0 0 0 0.0941176 0 0 0 0 0.156863 0 0 0 0.04 0"/>
<feBlend mode="normal" in2="BackgroundImageFix" result="effect1_dropShadow_13807_228"/>
<feBlend mode="normal" in="SourceGraphic" in2="effect1_dropShadow_13807_228" result="shape"/>
</filter>
</defs>
</svg>
