<svg width="64" height="68" viewBox="0 0 64 68" fill="none" xmlns="http://www.w3.org/2000/svg">
<g filter="url(#filter0_d_13807_219)">
<rect x="-2" y="1" width="64" height="64" rx="32" fill="white" shape-rendering="crispEdges"/>
<rect x="-1.5" y="1.5" width="63" height="63" rx="31.5" stroke="#DAE0E6" shape-rendering="crispEdges"/>
<path fill-rule="evenodd" clip-rule="evenodd" d="M37.1559 32.2616H37.8191C37.9139 31.9774 37.9139 31.5984 37.8191 31.1247C37.6296 30.4615 37.4401 29.9877 37.0611 30.0825C36.6822 30.1772 36.5874 30.651 36.7769 31.4089C36.8717 31.6932 37.0611 32.0721 37.1559 32.2616Z" fill="#101828"/>
<path fill-rule="evenodd" clip-rule="evenodd" d="M33.6503 32.8301C33.9345 32.9249 34.124 33.0196 34.2188 32.9249C34.2188 32.9249 34.2188 32.8301 34.2188 32.6406C34.0293 32.3564 33.745 32.1669 33.4608 31.9774C32.7976 31.6932 32.0396 31.7879 31.4711 32.2616C31.2816 32.4511 31.0922 32.6406 31.0922 32.7354C31.0922 32.7354 31.0922 32.8301 31.1869 32.8301C31.3764 32.8301 31.9449 32.5459 32.6081 32.5459C32.9871 32.5459 33.3661 32.6406 33.6503 32.8301Z" fill="#101828"/>
<path fill-rule="evenodd" clip-rule="evenodd" d="M33.0818 33.1143C32.7028 33.2091 32.5133 33.3038 32.3239 33.3986C32.2291 33.4933 32.1344 33.5881 32.1344 33.6828V33.7776H32.2291C32.3239 33.7776 32.5133 33.6828 32.5133 33.6828C33.0818 33.4933 33.3661 33.4933 33.745 33.5881H34.0293V33.4933C33.9345 33.3038 33.5555 33.1143 33.0818 33.1143Z" fill="#101828"/>
<path fill-rule="evenodd" clip-rule="evenodd" d="M36.0189 34.4408C36.3032 34.5355 36.5874 34.5355 36.6822 34.346C36.7769 34.1565 36.6822 33.8723 36.3979 33.7776C36.1137 33.6828 35.8294 33.6828 35.7347 33.8723C35.64 33.9671 35.7347 34.2513 36.0189 34.4408Z" fill="#101828"/>
<path fill-rule="evenodd" clip-rule="evenodd" d="M37.7244 32.9249C37.5349 32.9249 37.3454 33.1143 37.3454 33.4933C37.3454 33.7776 37.5349 34.0618 37.7244 34.0618C37.9139 34.0618 38.1033 33.8723 38.1033 33.4933C38.1033 33.2091 37.9139 32.9249 37.7244 32.9249Z" fill="#101828"/>
<path fill-rule="evenodd" clip-rule="evenodd" d="M23.323 38.2306C23.2283 38.1359 23.2283 38.2306 23.1335 38.2306C23.0388 38.2306 23.0388 38.2306 22.944 38.2306C22.7545 38.2306 22.6598 38.1359 22.565 38.0411C22.4703 37.8516 22.4703 37.6621 22.565 37.3779C22.565 37.3779 22.565 37.2832 22.6598 37.2832C22.8493 36.9042 23.1335 36.241 22.7545 35.6725C22.4703 35.1988 22.0913 34.9145 21.6176 34.8198C21.1438 34.725 20.6701 34.9145 20.3859 35.2935C19.9121 35.7672 19.8174 36.5252 19.9121 36.8094C19.9121 36.9042 20.0069 36.9042 20.0069 36.9042C20.1016 36.9042 20.1964 36.8094 20.2911 36.6199C20.2911 36.6199 20.2911 36.6199 20.2911 36.5252C20.2911 36.4304 20.3859 36.241 20.4806 36.0515C20.5754 35.862 20.7649 35.7672 21.0491 35.6725C21.2386 35.5777 21.5228 35.6725 21.7123 35.7672C21.9966 35.9567 22.186 36.4304 21.9966 36.8094C21.9018 36.9989 21.8071 37.3779 21.8071 37.6621C21.9018 38.3254 22.2808 38.5149 22.565 38.6096C22.944 38.6096 23.1335 38.4201 23.2283 38.3254C23.4177 38.2306 23.4177 38.2306 23.323 38.2306Z" fill="#101828"/>
<path d="M43.0301 36.9989C43.0301 36.9989 42.9354 36.6199 42.8406 36.241C42.7459 35.862 42.6511 35.5777 42.6511 35.5777C43.1249 34.9145 43.1249 34.2513 43.0301 33.8723C42.9354 33.3986 42.7459 33.0196 42.3669 32.6406C41.9879 32.2616 41.23 31.8826 40.1878 31.5984C40.093 31.5984 39.714 31.4089 39.6193 31.4089C39.6193 31.4089 39.6193 30.0825 39.5245 29.514C39.5245 29.135 39.4298 28.4718 39.2403 27.9033C39.0508 27.0506 38.5771 26.3874 38.1033 25.9137C39.5245 24.4925 40.3772 22.8818 40.3772 21.5554C40.3772 18.9972 37.1559 18.1445 33.2713 19.7552L32.4186 20.1342L30.9027 18.6182C26.4496 14.7337 12.3325 30.272 16.8803 34.1565L17.8277 35.0093C17.5435 35.6725 17.4488 36.4304 17.5435 37.2832C17.6382 38.3254 18.2067 39.3676 19.0594 40.1255C19.9121 40.8835 20.9544 41.3572 21.9966 41.3572C23.702 45.4313 27.7761 47.8947 32.4186 47.9894C37.4401 48.1789 41.7037 45.8103 43.4091 41.5467C43.5039 41.2625 43.9776 39.936 43.9776 38.7043C44.1671 37.5674 43.5039 36.9989 43.0301 36.9989ZM22.4703 40.2203C22.2808 40.2203 22.186 40.2203 21.9966 40.2203C20.4806 40.2203 18.8699 38.7991 18.6805 37.1884C18.491 35.3882 19.4384 34.0618 21.0491 33.6828C21.2386 33.6828 21.5228 33.5881 21.7123 33.5881C22.6598 33.6828 23.9862 34.346 24.2705 36.3357C24.5547 38.1359 24.1757 39.936 22.4703 40.2203ZM20.8596 32.6406C19.8174 32.8301 18.9647 33.3986 18.3962 34.1565C18.112 33.8723 17.4488 33.3986 17.354 33.1143C16.5013 31.5037 18.3015 28.2823 19.5332 26.4821C22.6598 22.0291 27.5866 18.6182 29.8605 19.2815C30.2394 19.3762 31.4711 20.7974 31.4711 20.7974C31.4711 20.7974 29.1972 22.0291 27.1128 23.8293C24.2705 26.0084 22.0913 29.2298 20.8596 32.6406ZM36.7769 39.5571C36.7769 39.4623 36.7769 39.3676 36.7769 39.3676C36.7769 39.3676 34.4083 39.7466 32.1344 38.8938C32.4186 38.1359 32.9871 38.4201 34.0293 38.4201C35.8294 38.5149 37.3454 38.2306 38.5771 37.9464C39.6193 37.6621 40.9457 37.0937 41.9879 36.241C42.3669 36.9989 42.4617 37.8516 42.4617 37.8516C42.4617 37.8516 42.7459 37.7569 42.9354 37.9464C43.1249 38.0411 43.3144 38.3254 43.2196 39.0833C43.0301 40.4098 42.4617 41.452 41.5142 42.4942C40.9457 43.1574 40.2825 43.6311 39.4298 44.0101C39.0508 44.1996 38.5771 44.3891 38.1033 44.5786C34.503 45.7155 30.9027 44.4838 29.7657 41.7362C29.671 41.5467 29.5762 41.3572 29.5762 41.073C29.1025 39.2728 29.4815 37.0937 30.8079 35.7672C30.9027 35.6725 30.9974 35.5777 30.9974 35.483C30.9974 35.3882 30.9027 35.2935 30.9027 35.1988C30.4289 34.5355 28.8183 33.3986 29.1972 31.1247C29.3867 29.514 30.8079 28.3771 32.1344 28.4718H32.4186C32.9871 28.4718 33.4608 28.5665 33.9345 28.5665C34.6925 28.5665 35.4505 28.4718 36.2084 27.8086C36.4927 27.6191 36.6822 27.3348 37.0611 27.3348H37.4401C37.6296 27.3348 37.8191 27.4296 38.0086 27.5243C38.6718 27.9981 38.7666 29.0403 38.7666 29.7982C38.7666 30.272 38.8613 31.3142 38.8613 31.5984C38.8613 32.2616 39.0508 32.4511 39.4298 32.5459C39.6193 32.6406 39.8088 32.6406 40.093 32.7354C40.9457 33.0196 41.5142 33.2091 41.7984 33.5881C41.9879 33.7776 42.0827 33.9671 42.0827 34.2513C42.1774 35.0093 41.5142 35.9567 39.714 36.8094C37.7244 37.7569 35.261 37.9464 33.6503 37.7569C33.5555 37.7569 33.0818 37.6621 33.0818 37.6621C31.7554 37.4727 30.9974 39.1781 31.7554 40.4098C32.2291 41.1677 33.6503 41.6415 35.0715 41.6415C38.2928 41.6415 40.7562 40.2203 41.7037 39.0833C41.7037 39.0833 41.7037 39.0833 41.7984 38.9886C41.7984 38.8938 41.7984 38.8938 41.7037 38.8938C40.9457 39.3676 37.6296 41.452 34.0293 40.8835C34.0293 40.8835 33.5555 40.7888 33.1766 40.694C32.8923 40.5993 32.2291 40.2203 32.1344 39.5571C34.882 40.4098 36.7769 39.5571 36.7769 39.5571ZM26.6391 26.4821C27.7761 25.1557 29.1025 24.1135 30.3342 23.4503C30.3342 23.4503 30.4289 23.4503 30.4289 23.545C30.3342 23.7345 30.1447 24.1135 30.05 24.3977C30.05 24.3977 30.05 24.4925 30.1447 24.4925C30.9027 24.0187 32.2291 23.4503 33.3661 23.3555C33.4608 23.3555 33.4608 23.4503 33.3661 23.4503C33.1766 23.545 32.9871 23.7345 32.8923 23.924V24.0187C33.745 24.0187 34.882 24.303 35.64 24.7767C35.7347 24.7767 35.64 24.8715 35.64 24.8715C34.503 24.5872 32.6081 24.3977 30.7132 24.8715C28.913 25.2504 27.5866 25.9137 26.6391 26.4821C26.6391 26.6716 26.5444 26.5769 26.6391 26.4821Z" fill="#101828"/>
</g>
<defs>
<filter id="filter0_d_13807_219" x="-4" y="0" width="68" height="68" filterUnits="userSpaceOnUse" color-interpolation-filters="sRGB">
<feFlood flood-opacity="0" result="BackgroundImageFix"/>
<feColorMatrix in="SourceAlpha" type="matrix" values="0 0 0 0 0 0 0 0 0 0 0 0 0 0 0 0 0 0 127 0" result="hardAlpha"/>
<feOffset dy="1"/>
<feGaussianBlur stdDeviation="1"/>
<feComposite in2="hardAlpha" operator="out"/>
<feColorMatrix type="matrix" values="0 0 0 0 0.0627451 0 0 0 0 0.0941176 0 0 0 0 0.156863 0 0 0 0.04 0"/>
<feBlend mode="normal" in2="BackgroundImageFix" result="effect1_dropShadow_13807_219"/>
<feBlend mode="normal" in="SourceGraphic" in2="effect1_dropShadow_13807_219" result="shape"/>
</filter>
</defs>
</svg>
