<svg width="92" height="92" viewBox="0 0 92 92" fill="none" xmlns="http://www.w3.org/2000/svg">
<g filter="url(#filter0_d_13807_222)">
<rect x="2" y="1" width="88" height="88" rx="44" fill="white" shape-rendering="crispEdges"/>
<rect x="2.5" y="1.5" width="87" height="87" rx="43.5" stroke="#DAE0E6" shape-rendering="crispEdges"/>
<path d="M46.028 33.8512L35.514 40.5741L46.028 47.297L35.514 54.0199L25 47.241L35.514 40.5181L25 33.8512L35.514 27.1283L46.028 33.8512ZM35.4581 56.1488L45.972 49.4259L56.486 56.1488L45.972 62.8717L35.4581 56.1488ZM46.028 47.241L56.5419 40.5181L46.028 33.8512L56.486 27.1283L67 33.8512L56.486 40.5741L67 47.297L56.486 54.0199L46.028 47.241Z" fill="#0061FF"/>
</g>
<defs>
<filter id="filter0_d_13807_222" x="0" y="0" width="92" height="92" filterUnits="userSpaceOnUse" color-interpolation-filters="sRGB">
<feFlood flood-opacity="0" result="BackgroundImageFix"/>
<feColorMatrix in="SourceAlpha" type="matrix" values="0 0 0 0 0 0 0 0 0 0 0 0 0 0 0 0 0 0 127 0" result="hardAlpha"/>
<feOffset dy="1"/>
<feGaussianBlur stdDeviation="1"/>
<feComposite in2="hardAlpha" operator="out"/>
<feColorMatrix type="matrix" values="0 0 0 0 0.0627451 0 0 0 0 0.0941176 0 0 0 0 0.156863 0 0 0 0.04 0"/>
<feBlend mode="normal" in2="BackgroundImageFix" result="effect1_dropShadow_13807_222"/>
<feBlend mode="normal" in="SourceGraphic" in2="effect1_dropShadow_13807_222" result="shape"/>
</filter>
</defs>
</svg>
