<svg width="92" height="92" viewBox="0 0 92 92" fill="none" xmlns="http://www.w3.org/2000/svg">
<g filter="url(#filter0_d_13807_188)">
<rect x="2" y="1" width="88" height="88" rx="44" fill="white" shape-rendering="crispEdges"/>
<rect x="2.5" y="1.5" width="87" height="87" rx="43.5" stroke="#DAE0E6" shape-rendering="crispEdges"/>
<path d="M46 58.2467C46.4408 58.2467 46.8607 58.1419 47.2595 57.9109L51.8571 55.2657C52.7808 54.7408 53.8515 54.51 54.9221 54.6359C60.5063 55.2867 64.4111 56.3364 65.5657 56.6724C65.7967 56.7353 66.0695 56.6514 66.2165 56.4623C66.4055 56.2314 66.6364 55.8536 66.8253 55.3078C66.9933 54.7829 67.0142 54.342 66.9933 54.0271C66.9723 53.7752 66.8044 53.5443 66.5525 53.4813C64.747 52.9564 56.7486 50.7941 46 50.7941C35.2515 50.7941 27.2529 52.9565 25.4476 53.4813C25.1957 53.5443 25.0277 53.7752 25.0067 54.0272C24.9857 54.321 25.0067 54.762 25.1746 55.3078C25.3425 55.8536 25.5945 56.2314 25.7834 56.4623C25.9304 56.6514 26.2034 56.7353 26.4342 56.6723C27.5889 56.3364 31.5146 55.2867 37.0778 54.6359C38.1484 54.51 39.2192 54.7409 40.1428 55.2657L44.7404 57.9109C45.1393 58.1419 45.5801 58.2467 46 58.2467ZM38.3375 43.3626C38.5894 43.8033 38.9883 44.0973 39.45 44.2232C39.9118 44.3492 40.3947 44.2862 40.8356 44.0343C41.2764 43.7824 41.5704 43.3835 41.6963 42.9216C41.8223 42.4598 41.7593 41.977 41.5074 41.5361L37.3717 34.3774C37.2458 34.1465 36.9729 34.0626 36.7209 34.0835C36.3851 34.1045 35.9232 34.2724 35.3774 34.5874C34.8315 34.9023 34.4537 35.2171 34.2648 35.4901C34.1177 35.7 34.0758 35.9729 34.2017 36.2038L38.3375 43.3626ZM34.5587 48.4849C34.9994 48.7369 35.5033 48.7788 35.9442 48.6739C36.406 48.5478 36.8049 48.254 37.0568 47.8131C37.3087 47.3723 37.3508 46.8685 37.2458 46.4276C37.1408 45.9866 36.8259 45.5668 36.3851 45.3149L29.2264 41.1792C28.9954 41.0533 28.7225 41.0953 28.5126 41.2423C28.2397 41.4311 27.9248 41.8091 27.6098 42.3549C27.2949 42.9007 27.127 43.3626 27.106 43.6985C27.0849 43.9713 27.19 44.2233 27.3999 44.3493L34.5587 48.4849ZM47.8264 40.8224C47.8264 41.3262 47.6164 41.788 47.3015 42.1239C46.9656 42.4599 46.5248 42.6488 46 42.6488C45.4962 42.6488 45.0344 42.4388 44.6984 42.1239C44.3626 41.788 44.1735 41.3472 44.1735 40.8224V32.5719C44.1735 32.2991 44.3415 32.0891 44.5934 31.9842C44.8873 31.8372 45.3702 31.7533 46 31.7533C46.6299 31.7533 47.1126 31.8372 47.4065 31.9842C47.6375 32.1102 47.8264 32.2991 47.8264 32.5719V40.8224ZM53.6626 43.3626C53.4106 43.8033 53.0118 44.0973 52.5499 44.2232C52.088 44.3492 51.6052 44.2862 51.1643 44.0343C50.7235 43.7824 50.4296 43.3835 50.3036 42.9216C50.1776 42.4598 50.2406 41.977 50.4925 41.5361L54.6282 34.3774C54.7542 34.1465 55.0271 34.0626 55.279 34.0835C55.6149 34.1045 56.0767 34.2724 56.6226 34.5874C57.1684 34.9023 57.5463 35.2171 57.7353 35.4901C57.8822 35.7 57.9242 35.9729 57.7983 36.2038L53.6626 43.3626ZM57.4414 48.4849C57.0005 48.7369 56.4967 48.7788 56.0558 48.6739C55.5939 48.5478 55.1951 48.254 54.9431 47.8131C54.6912 47.3723 54.6492 46.8685 54.7542 46.4276C54.8801 45.9658 55.174 45.5668 55.6149 45.3149L62.7737 41.1792C63.0046 41.0533 63.2775 41.0953 63.4874 41.2423C63.7603 41.4311 64.0752 41.8091 64.3901 42.3549C64.705 42.9007 64.8729 43.3626 64.894 43.6985C64.915 43.9713 64.81 44.2233 64.6001 44.3493L57.4414 48.4849Z" fill="#0770E3"/>
</g>
<defs>
<filter id="filter0_d_13807_188" x="0" y="0" width="92" height="92" filterUnits="userSpaceOnUse" color-interpolation-filters="sRGB">
<feFlood flood-opacity="0" result="BackgroundImageFix"/>
<feColorMatrix in="SourceAlpha" type="matrix" values="0 0 0 0 0 0 0 0 0 0 0 0 0 0 0 0 0 0 127 0" result="hardAlpha"/>
<feOffset dy="1"/>
<feGaussianBlur stdDeviation="1"/>
<feComposite in2="hardAlpha" operator="out"/>
<feColorMatrix type="matrix" values="0 0 0 0 0.0627451 0 0 0 0 0.0941176 0 0 0 0 0.156863 0 0 0 0.04 0"/>
<feBlend mode="normal" in2="BackgroundImageFix" result="effect1_dropShadow_13807_188"/>
<feBlend mode="normal" in="SourceGraphic" in2="effect1_dropShadow_13807_188" result="shape"/>
</filter>
</defs>
</svg>
