<svg width="124" height="124" viewBox="0 0 124 124" fill="none" xmlns="http://www.w3.org/2000/svg">
<g filter="url(#filter0_d_13807_234)">
<rect x="2" y="1" width="120" height="120" rx="60" fill="white" shape-rendering="crispEdges"/>
<rect x="2.5" y="1.5" width="119" height="119" rx="59.5" stroke="#DAE0E6" shape-rendering="crispEdges"/>
<path d="M59.113 38.7767L38.9801 47.1854C37.8606 47.6531 37.8722 49.2585 38.9988 49.7093L59.2155 57.8016C60.9918 58.5126 62.97 58.5126 64.7463 57.8016L84.9634 49.709C86.0896 49.2585 86.1019 47.6534 84.9817 47.1857L64.8494 38.7764C63.0127 38.0093 60.9497 38.0096 59.113 38.7767Z" fill="#FCB400"/>
<path d="M63.7747 62.2201V82.436C63.7747 83.3973 64.7353 84.056 65.6207 83.7017L88.1484 74.8755C88.3997 74.775 88.6152 74.6006 88.767 74.3749C88.9189 74.1492 89.0001 73.8827 89 73.6099V53.3943C89 52.4327 88.0394 51.7744 87.154 52.1287L64.6263 60.9548C64.3751 61.0554 64.1596 61.2298 64.0078 61.4555C63.856 61.6812 63.7748 61.9473 63.7747 62.2201Z" fill="#18BFFF"/>
<path d="M58.5142 63.2626L51.8284 66.5209L51.1496 66.8521L37.0365 73.6779C36.1422 74.1135 35 73.4554 35 72.4523V53.4783C35 53.1153 35.1844 52.802 35.4316 52.5663C35.533 52.4644 35.6481 52.3773 35.7734 52.3075C36.1104 52.1033 36.5915 52.0487 37.0005 52.212L58.4018 60.7714C59.4897 61.207 59.5751 62.7453 58.5142 63.2626Z" fill="#F82B60"/>
<path d="M58.5142 63.2626L51.8284 66.5209L35.4316 52.5663C35.533 52.4644 35.6481 52.3773 35.7734 52.3075C36.1104 52.1033 36.5915 52.0487 37.0005 52.212L58.4018 60.7714C59.4897 61.207 59.5751 62.7453 58.5142 63.2626Z" fill="black" fill-opacity="0.25"/>
</g>
<defs>
<filter id="filter0_d_13807_234" x="0" y="0" width="124" height="124" filterUnits="userSpaceOnUse" color-interpolation-filters="sRGB">
<feFlood flood-opacity="0" result="BackgroundImageFix"/>
<feColorMatrix in="SourceAlpha" type="matrix" values="0 0 0 0 0 0 0 0 0 0 0 0 0 0 0 0 0 0 127 0" result="hardAlpha"/>
<feOffset dy="1"/>
<feGaussianBlur stdDeviation="1"/>
<feComposite in2="hardAlpha" operator="out"/>
<feColorMatrix type="matrix" values="0 0 0 0 0.0627451 0 0 0 0 0.0941176 0 0 0 0 0.156863 0 0 0 0.04 0"/>
<feBlend mode="normal" in2="BackgroundImageFix" result="effect1_dropShadow_13807_234"/>
<feBlend mode="normal" in="SourceGraphic" in2="effect1_dropShadow_13807_234" result="shape"/>
</filter>
</defs>
</svg>
