<svg width="68" height="68" viewBox="0 0 68 68" fill="none" xmlns="http://www.w3.org/2000/svg">
<g filter="url(#filter0_d_13807_200)">
<rect x="2" y="1" width="64" height="64" rx="32" fill="white" shape-rendering="crispEdges"/>
<rect x="2.5" y="1.5" width="63" height="63" rx="31.5" stroke="#DAE0E6" shape-rendering="crispEdges"/>
<path d="M34 18C25.72 18 19 24.72 19 33C19 41.28 25.72 48 34 48C42.28 48 49 41.28 49 33C49 24.72 42.28 18 34 18ZM34 44.04C27.88 44.04 22.96 39.12 22.96 33C22.96 26.88 27.88 21.96 34 21.96C40.12 21.96 45.04 26.88 45.04 33C45.04 39.12 40.12 44.04 34 44.04Z" fill="#F12E45"/>
<path d="M37.72 32.4C39.4431 32.4 40.84 31.0031 40.84 29.28C40.84 27.5569 39.4431 26.16 37.72 26.16C35.9969 26.16 34.6 27.5569 34.6 29.28C34.6 31.0031 35.9969 32.4 37.72 32.4Z" fill="#F12E45"/>
<path d="M37.72 39.84C39.4431 39.84 40.84 38.4431 40.84 36.72C40.84 34.9969 39.4431 33.6 37.72 33.6C35.9969 33.6 34.6 34.9969 34.6 36.72C34.6 38.4431 35.9969 39.84 37.72 39.84Z" fill="#F12E45"/>
<path d="M30.28 39.84C32.0031 39.84 33.4 38.4431 33.4 36.72C33.4 34.9969 32.0031 33.6 30.28 33.6C28.5569 33.6 27.16 34.9969 27.16 36.72C27.16 38.4431 28.5569 39.84 30.28 39.84Z" fill="#F12E45"/>
<path d="M30.28 32.4C32.0031 32.4 33.4 31.0031 33.4 29.28C33.4 27.5569 32.0031 26.16 30.28 26.16C28.5569 26.16 27.16 27.5569 27.16 29.28C27.16 31.0031 28.5569 32.4 30.28 32.4Z" fill="#F12E45"/>
</g>
<defs>
<filter id="filter0_d_13807_200" x="0" y="0" width="68" height="68" filterUnits="userSpaceOnUse" color-interpolation-filters="sRGB">
<feFlood flood-opacity="0" result="BackgroundImageFix"/>
<feColorMatrix in="SourceAlpha" type="matrix" values="0 0 0 0 0 0 0 0 0 0 0 0 0 0 0 0 0 0 127 0" result="hardAlpha"/>
<feOffset dy="1"/>
<feGaussianBlur stdDeviation="1"/>
<feComposite in2="hardAlpha" operator="out"/>
<feColorMatrix type="matrix" values="0 0 0 0 0.0627451 0 0 0 0 0.0941176 0 0 0 0 0.156863 0 0 0 0.04 0"/>
<feBlend mode="normal" in2="BackgroundImageFix" result="effect1_dropShadow_13807_200"/>
<feBlend mode="normal" in="SourceGraphic" in2="effect1_dropShadow_13807_200" result="shape"/>
</filter>
</defs>
</svg>
