<svg width="89" height="92" viewBox="0 0 89 92" fill="none" xmlns="http://www.w3.org/2000/svg">
<g filter="url(#filter0_d_13807_225)">
<rect x="2" y="1" width="88" height="88" rx="44" fill="white" shape-rendering="crispEdges"/>
<rect x="2.5" y="1.5" width="87" height="87" rx="43.5" stroke="#DAE0E6" shape-rendering="crispEdges"/>
<path fill-rule="evenodd" clip-rule="evenodd" d="M28.4607 56.2672L34.9355 51.3185C38.3738 55.7978 42.0251 57.8619 46.0939 57.8619C50.1401 57.8619 53.6911 55.8216 56.9754 51.3778L63.5393 56.2079C58.8041 62.615 52.9128 66 46.0939 66C39.2976 66 33.3517 62.6388 28.4607 56.2672Z" fill="url(#paint0_linear_13807_225)"/>
<path fill-rule="evenodd" clip-rule="evenodd" d="M46.0733 34.7623L34.5492 44.6708L29.2253 38.5058L46.0962 24L62.836 38.5171L57.4858 44.6596L46.0733 34.7623Z" fill="url(#paint1_linear_13807_225)"/>
</g>
<defs>
<filter id="filter0_d_13807_225" x="0" y="0" width="92" height="92" filterUnits="userSpaceOnUse" color-interpolation-filters="sRGB">
<feFlood flood-opacity="0" result="BackgroundImageFix"/>
<feColorMatrix in="SourceAlpha" type="matrix" values="0 0 0 0 0 0 0 0 0 0 0 0 0 0 0 0 0 0 127 0" result="hardAlpha"/>
<feOffset dy="1"/>
<feGaussianBlur stdDeviation="1"/>
<feComposite in2="hardAlpha" operator="out"/>
<feColorMatrix type="matrix" values="0 0 0 0 0.0627451 0 0 0 0 0.0941176 0 0 0 0 0.156863 0 0 0 0.04 0"/>
<feBlend mode="normal" in2="BackgroundImageFix" result="effect1_dropShadow_13807_225"/>
<feBlend mode="normal" in="SourceGraphic" in2="effect1_dropShadow_13807_225" result="shape"/>
</filter>
<linearGradient id="paint0_linear_13807_225" x1="28.4607" y1="73.5625" x2="63.5393" y2="73.5625" gradientUnits="userSpaceOnUse">
<stop stop-color="#8930FD"/>
<stop offset="1" stop-color="#49CCF9"/>
</linearGradient>
<linearGradient id="paint1_linear_13807_225" x1="28.4607" y1="73.5625" x2="63.5393" y2="73.5625" gradientUnits="userSpaceOnUse">
<stop stop-color="#FF02F0"/>
<stop offset="1" stop-color="#FFC800"/>
</linearGradient>
</defs>
</svg>
