<svg width="124" height="124" viewBox="0 0 124 124" fill="none" xmlns="http://www.w3.org/2000/svg">
<g filter="url(#filter0_d_13807_237)">
<rect x="2" y="1" width="120" height="120" rx="60" fill="white" shape-rendering="crispEdges"/>
<rect x="2.5" y="1.5" width="119" height="119" rx="59.5" stroke="#DAE0E6" shape-rendering="crispEdges"/>
<path fill-rule="evenodd" clip-rule="evenodd" d="M82.5895 34.0174H41.4192C37.8774 34.0174 35.0049 36.886 35.0001 40.4278V81.5376C34.9932 83.2445 35.6664 84.8839 36.871 86.0933C38.0756 87.3027 39.7122 87.9826 41.4192 87.9826H82.5895C84.2949 87.9803 85.9294 87.2994 87.132 86.0903C88.3347 84.8811 89.0068 83.243 89 81.5376V40.4278C88.9951 36.8894 86.1279 34.0222 82.5895 34.0174ZM58.2887 72.8865C58.2864 73.457 58.057 74.0032 57.6511 74.4041C57.2453 74.8051 56.6965 75.0279 56.1259 75.0234H47.1289C45.9521 75.0186 45.0007 74.0633 45.0007 72.8865V46.1116C45.0007 44.9348 45.9521 43.9795 47.1289 43.9747H56.1259C57.3041 43.9795 58.258 44.9334 58.2628 46.1116L58.2887 72.8865ZM79.0512 60.5934C79.0512 61.1646 78.8226 61.7121 78.4162 62.1136C78.0098 62.5151 77.4596 62.7371 76.8884 62.7304H67.8914C66.7132 62.7255 65.7593 61.7716 65.7546 60.5934V46.1116C65.7593 44.9334 66.7132 43.9795 67.8914 43.9747H76.8884C78.0652 43.9795 79.0166 44.9348 79.0166 46.1116L79.0512 60.5934Z" fill="url(#paint0_linear_13807_237)"/>
</g>
<defs>
<filter id="filter0_d_13807_237" x="0" y="0" width="124" height="124" filterUnits="userSpaceOnUse" color-interpolation-filters="sRGB">
<feFlood flood-opacity="0" result="BackgroundImageFix"/>
<feColorMatrix in="SourceAlpha" type="matrix" values="0 0 0 0 0 0 0 0 0 0 0 0 0 0 0 0 0 0 127 0" result="hardAlpha"/>
<feOffset dy="1"/>
<feGaussianBlur stdDeviation="1"/>
<feComposite in2="hardAlpha" operator="out"/>
<feColorMatrix type="matrix" values="0 0 0 0 0.0627451 0 0 0 0 0.0941176 0 0 0 0 0.156863 0 0 0 0.04 0"/>
<feBlend mode="normal" in2="BackgroundImageFix" result="effect1_dropShadow_13807_237"/>
<feBlend mode="normal" in="SourceGraphic" in2="effect1_dropShadow_13807_237" result="shape"/>
</filter>
<linearGradient id="paint0_linear_13807_237" x1="62.026" y1="87.9826" x2="62.026" y2="34.0174" gradientUnits="userSpaceOnUse">
<stop stop-color="#0052CC"/>
<stop offset="1" stop-color="#2684FF"/>
</linearGradient>
</defs>
</svg>
