<svg width="164" height="48" viewBox="0 0 164 48" fill="none" xmlns="http://www.w3.org/2000/svg">
<g clip-path="url(#clip0_1_22434)">
<path d="M45.6503 14.0131H53.2724C58.1317 14.0131 62.146 16.8247 62.146 23.2442V24.5931C62.146 31.0613 58.3918 33.9704 53.4187 33.9704H45.6503V14.0131ZM49.9083 17.6373V30.33H53.1749C55.9377 30.33 57.7904 28.526 57.7904 24.5118V23.4555C57.7904 19.4412 55.8402 17.6373 53.0286 17.6373H49.9083ZM64.405 17.8323H67.8179L68.3704 21.5865C69.0205 19.0349 70.6782 17.6698 73.6848 17.6698H74.7412V21.9765H72.986C69.5243 21.9765 68.6792 23.1792 68.6792 26.5921V34.0192H64.47V17.8323H64.405ZM75.5863 26.2508V25.7957C75.5863 20.3838 79.0479 17.426 83.761 17.426C88.5715 17.426 91.9357 20.3838 91.9357 25.7957V26.2508C91.9357 31.5652 88.6691 34.4255 83.761 34.4255C78.5441 34.3767 75.5863 31.5814 75.5863 26.2508ZM87.6289 26.202V25.7957C87.6289 22.7891 86.1175 20.9852 83.7122 20.9852C81.3557 20.9852 79.7955 22.6429 79.7955 25.7957V26.202C79.7955 29.1111 81.3069 30.7688 83.7122 30.7688C86.1175 30.7201 87.6289 29.1111 87.6289 26.202ZM94.1459 17.8323H97.6564L98.0627 20.8877C98.9078 18.8399 100.712 17.426 103.377 17.426C107.489 17.426 110.203 20.3838 110.203 25.8607V26.3158C110.203 31.6302 107.196 34.4417 103.377 34.4417C100.825 34.4417 99.0703 33.2879 98.2089 31.4351V39.6098H94.0972L94.1459 17.8323ZM105.929 26.202V25.8445C105.929 22.6266 104.271 21.0339 102.061 21.0339C99.7041 21.0339 98.1439 22.8379 98.1439 25.8445V26.1533C98.1439 29.0136 99.6553 30.8176 102.012 30.8176C104.433 30.7688 105.929 29.2249 105.929 26.202ZM116.427 31.0288L116.07 33.9867H112.462V12.4204H116.574V20.6926C117.484 18.5799 119.288 17.426 121.839 17.426C125.707 17.4748 128.567 20.1401 128.567 25.5032V26.007C128.567 31.3701 125.853 34.4417 121.742 34.4417C119.028 34.3767 117.272 33.1253 116.427 31.0288ZM124.244 26.007V25.6007C124.244 22.6429 122.636 20.9852 120.377 20.9852C118.069 20.9852 116.46 22.8379 116.46 25.6495V26.007C116.46 29.0136 118.02 30.7688 120.328 30.7688C122.798 30.7688 124.244 29.2249 124.244 26.007ZM130.371 26.2508V25.7957C130.371 20.3838 133.833 17.426 138.546 17.426C143.357 17.426 146.721 20.3838 146.721 25.7957V26.2508C146.721 31.5652 143.405 34.4255 138.546 34.4255C133.329 34.3767 130.371 31.5814 130.371 26.2508ZM142.447 26.202V25.7957C142.447 22.7891 140.935 20.9852 138.53 20.9852C136.173 20.9852 134.613 22.6429 134.613 25.7957V26.202C134.613 29.1111 136.125 30.7688 138.53 30.7688C140.951 30.7201 142.447 29.1111 142.447 26.202ZM152.23 25.6007L146.558 17.8323H151.418L154.684 22.6916L158 17.8323H162.81L157.057 25.5519L163.119 33.9867H158.357L154.652 28.6236L151.044 33.9867H146.071L152.23 25.6007Z" fill="black"/>
<path d="M19.4522 14.0132L10.0261 20.0264L19.4522 26.0396L10.0261 32.0528L0.599976 26.0071L10.0261 19.9939L0.599976 14.0132L10.0261 8L19.4522 14.0132ZM9.97733 33.9868L19.4034 27.9736L28.8295 33.9868L19.4034 40L9.97733 33.9868ZM19.4522 26.0071L28.8783 19.9939L19.4522 14.0132L28.8295 8L38.2556 14.0132L28.8295 20.0264L38.2556 26.0396L28.8295 32.0528L19.4522 26.0071Z" fill="#0061FF"/>
</g>
<defs>
<clipPath id="clip0_1_22434">
<rect width="163" height="48" fill="white" transform="translate(0.599976)"/>
</clipPath>
</defs>
</svg>
