<svg width="32" height="28" viewBox="0 0 32 28" fill="none" xmlns="http://www.w3.org/2000/svg">
<path d="M18.2084 28V19.5804C18.2084 14.2937 19.3502 9.98602 21.6338 6.65734C23.9775 3.2634 27.4329 1.04429 32 0V6.36364C29.9568 6.88578 28.3343 7.8648 27.1324 9.3007C25.9305 10.6713 25.1493 12.3357 24.7887 14.2937H30.1972V28H18.2084ZM0 28V19.5804C0 14.2937 1.14178 9.98602 3.42535 6.65734C5.76901 3.2634 9.19437 1.04429 13.7014 0V6.36364C11.6582 6.88578 10.0357 7.8648 8.8338 9.3007C7.63192 10.6713 6.8507 12.3357 6.49014 14.2937H11.8986V28H0Z" fill="url(#paint0_linear_1_22199)"/>
<defs>
<linearGradient id="paint0_linear_1_22199" x1="16" y1="0" x2="16" y2="28" gradientUnits="userSpaceOnUse">
<stop stop-color="#FFA229"/>
<stop offset="0.78125" stop-color="#1C4670"/>
</linearGradient>
</defs>
</svg>
