<svg width="122" height="48" viewBox="0 0 122 48" fill="none" xmlns="http://www.w3.org/2000/svg">
<g clip-path="url(#clip0_1_22433)">
<path d="M38.3251 32.4265L39.7932 28.995C41.4006 30.1854 43.4973 30.8155 45.5945 30.8155C47.1323 30.8155 48.1107 30.2205 48.1107 29.3103C48.0756 26.7891 38.8494 28.7499 38.7792 22.4113C38.7441 19.1898 41.6102 16.7037 45.6646 16.7037C48.0756 16.7037 50.4875 17.2992 52.1997 18.665L50.8279 22.1697C49.2525 21.1567 47.3067 20.4504 45.4546 20.4504C44.1965 20.4504 43.3575 21.0454 43.3575 21.8163C43.3925 24.3024 52.6895 22.9366 52.7942 28.995C52.7942 32.2866 49.9978 34.5978 46.0135 34.5978C43.0783 34.5978 40.3871 33.8976 38.3246 32.4265H38.3251ZM96.7831 27.7524C96.4125 28.4109 95.8735 28.9589 95.2212 29.3403C94.569 29.7217 93.827 29.9227 93.0715 29.9228C90.7167 29.9228 88.8079 28.0101 88.8079 25.6508C88.8079 23.2914 90.7167 21.3787 93.0715 21.3787C93.827 21.3788 94.569 21.5798 95.2212 21.9612C95.8735 22.3426 96.4125 22.8906 96.7831 23.5491L100.865 21.2835C99.3359 18.5513 96.4197 16.7037 93.0715 16.7037C88.1398 16.7037 84.142 20.7091 84.142 25.6508C84.142 30.5919 88.1398 34.5978 93.0715 34.5978C96.4197 34.5978 99.3359 32.7502 100.865 30.018L96.7831 27.7524ZM55.4427 34.2474H60.5453V9.25586H55.4432L55.4427 34.2474ZM103.442 9.25586V34.2474H108.544V26.76L114.59 34.2474H121.113L113.424 25.3525L120.553 17.0526H114.311L108.544 23.9531V9.25586H103.442ZM76.2655 17.0536V19.0851C75.427 17.6841 73.3649 16.7037 71.1981 16.7037C66.7245 16.7037 63.1948 20.661 63.1948 25.6332C63.1948 30.6055 66.7245 34.5978 71.1981 34.5978C73.3649 34.5978 75.427 33.6174 76.2655 32.2164V34.2474H81.3681V17.0536H76.2655ZM76.2655 27.787C75.5317 29.0125 73.9939 29.9223 72.2817 29.9223C69.9264 29.9223 68.0177 28.0101 68.0177 25.6508C68.0177 23.2914 69.9264 21.3787 72.2817 21.3787C73.9939 21.3787 75.5317 22.3241 76.2655 23.5842V27.787Z" fill="black"/>
<path d="M11.3783 8.70361C9.72471 8.70361 8.38441 10.0469 8.38441 11.7035C8.38402 12.0971 8.46114 12.4868 8.61138 12.8506C8.76163 13.2143 8.98204 13.5449 9.26005 13.8235C9.53806 14.1021 9.86821 14.3231 10.2317 14.4741C10.5951 14.6251 10.9847 14.703 11.3783 14.7034H14.3727V11.7035C14.3733 10.9086 14.0582 10.1461 13.4967 9.58348C12.9352 9.0209 12.1732 8.70441 11.3783 8.70361ZM11.3783 16.7033H3.39411C1.74054 16.7033 0.400238 18.0466 0.400238 19.7037C0.400238 21.3603 1.74054 22.7036 3.39411 22.7036H11.3788C13.0319 22.7036 14.3727 21.3603 14.3727 19.7037C14.3727 18.0466 13.0319 16.7033 11.3783 16.7033Z" fill="#36C5F0"/>
<path d="M30.3411 19.7037C30.3411 18.0466 29.0003 16.7033 27.3467 16.7033C25.6932 16.7033 24.3529 18.0466 24.3529 19.7037V22.7036H27.3467C28.1416 22.7028 28.9036 22.3863 29.4651 21.8237C30.0267 21.2612 30.3418 20.4986 30.3411 19.7037ZM22.3569 19.7037V11.7035C22.3576 10.9086 22.0425 10.1461 21.481 9.58348C20.9194 9.0209 20.1574 8.70441 19.3626 8.70361C17.709 8.70361 16.3687 10.0469 16.3687 11.7035V19.7032C16.3687 21.3608 17.709 22.7041 19.3626 22.7041C20.1574 22.7033 20.9194 22.3868 21.481 21.8242C22.0425 21.2617 22.3576 20.4991 22.3569 19.7042" fill="#2EB67D"/>
<path d="M19.3626 38.7036C20.1575 38.7028 20.9195 38.3863 21.481 37.8237C22.0426 37.2612 22.3577 36.4986 22.357 35.7037C22.3577 34.9088 22.0426 34.1463 21.481 33.5837C20.9195 33.0211 20.1575 32.7046 19.3626 32.7038H16.3687V35.7037C16.3687 37.3603 17.709 38.7036 19.3626 38.7036ZM19.3626 30.7039H27.3473C29.0004 30.7039 30.3412 29.3606 30.3412 27.7035C30.3418 26.9086 30.0267 26.1461 29.4652 25.5835C28.9037 25.0209 28.1417 24.7044 27.3468 24.7036H19.3626C17.709 24.7036 16.3687 26.0469 16.3687 27.7035C16.3684 28.0971 16.4455 28.4868 16.5957 28.8506C16.746 29.2143 16.9664 29.5449 17.2444 29.8235C17.5224 30.1021 17.8525 30.3231 18.216 30.4741C18.5794 30.6251 18.9691 30.703 19.3626 30.7034" fill="#ECB22E"/>
<path d="M0.399995 27.7035C0.3996 28.0971 0.476726 28.4868 0.626968 28.8506C0.777211 29.2143 0.997628 29.5449 1.27564 29.8235C1.55364 30.1021 1.8838 30.3231 2.24724 30.4741C2.61069 30.6251 3.00032 30.703 3.39387 30.7034C4.18874 30.7026 4.95075 30.3861 5.51229 29.8235C6.07383 29.261 6.38891 28.4984 6.38825 27.7035V24.7036H3.39387C1.7403 24.7036 0.399995 26.0469 0.399995 27.7035ZM8.38417 27.7035V35.7032C8.38417 37.3603 9.72447 38.7036 11.378 38.7036C12.1729 38.7028 12.9349 38.3863 13.4965 37.8237C14.058 37.2612 14.3731 36.4986 14.3724 35.7037V27.7035C14.3728 27.3099 14.2957 26.9201 14.1454 26.5563C13.9951 26.1925 13.7747 25.8619 13.4966 25.5833C13.2185 25.3048 12.8883 25.0837 12.5248 24.9327C12.1613 24.7818 11.7716 24.7039 11.378 24.7036C9.72447 24.7036 8.38417 26.0469 8.38417 27.7035Z" fill="#E01E5A"/>
</g>
<defs>
<clipPath id="clip0_1_22433">
<rect width="121" height="48" fill="white" transform="translate(0.399994)"/>
</clipPath>
</defs>
</svg>
