<svg width="117" height="29" viewBox="0 0 117 29" fill="none" xmlns="http://www.w3.org/2000/svg">
<path d="M38.0464 11.4076C38.0464 9.34597 35.9848 7.14692 32.5488 7.14692C28.7005 7.14692 24.3024 10.0332 23.6152 15.8057C22.9279 21.5782 26.5014 24.1896 30.2123 24.1896C33.9232 24.1896 35.7099 22.8152 37.6341 20.891C35.9848 18.8294 33.7858 19.7915 33.3734 19.9289C32.9611 20.2038 32.2739 20.4787 31.1744 20.4787C29.8 20.4787 28.2881 19.7915 28.2881 17.1801C37.3592 16.218 38.0464 13.4692 38.0464 11.4076ZM33.6483 11.6825C33.6483 12.3697 33.3734 13.4692 28.8379 14.019C29.8 10.5829 31.5867 10.3081 32.4114 10.3081C33.236 10.4455 33.6483 10.9953 33.6483 11.6825ZM18.3924 12.2322C18.3924 12.2322 16.4682 18.2796 16.3308 18.8294C16.3308 18.2796 14.8189 7.4218 14.8189 7.4218C11.5204 7.4218 9.73364 9.75829 8.90899 12.2322C8.90899 12.2322 6.5725 18.2796 6.43506 18.8294C6.29762 18.4171 6.02274 12.3697 6.02274 12.3697C5.74786 9.34597 2.99904 7.4218 0.799988 7.4218L3.5488 23.9147C6.98482 23.9147 8.90899 21.5782 9.87108 19.1043C9.87108 19.1043 11.9327 13.7441 12.0701 13.4692C12.0701 13.7441 13.582 23.9147 13.582 23.9147C17.018 23.9147 18.9422 21.7156 19.9043 19.3791L24.7147 7.4218C21.1412 7.4218 19.3545 9.75829 18.3924 12.2322ZM50.8284 7.00948C48.7668 7.00948 47.1175 8.109 45.7431 9.89573L46.8426 0C43.9564 0 41.7573 2.47393 41.2076 6.04739L39.0085 23.7772C40.6578 23.7772 42.3071 23.3649 43.2692 22.128C44.0938 23.2275 45.3308 24.0521 47.1175 24.0521C51.9279 24.0521 55.2265 18.5545 55.2265 13.3318C55.364 8.52133 53.0275 7.00948 50.8284 7.00948ZM50.2787 15.5308C49.7289 18.4171 48.217 20.3412 46.5678 20.3412C45.0559 20.3412 44.3687 19.654 44.3687 19.654C44.6436 17.1801 44.9185 15.5308 45.4682 14.1564C46.018 12.782 47.3924 10.7204 48.7668 10.7204C50.1412 10.8578 50.8284 12.6446 50.2787 15.5308ZM67.3213 7.4218H64.0227V7.28436C64.2976 5.08531 64.7099 3.98578 66.4967 3.84834C67.5962 3.7109 68.146 3.16114 68.2834 2.47393C68.4208 1.92417 68.6957 0.137441 68.6957 0.137441C61.9611 0.137441 59.8995 3.0237 59.3497 7.4218V7.55924H59.2123C58.1128 7.55924 56.8758 8.79621 56.7384 10.3081L56.6009 10.8578H58.8L56.8758 26.2512L56.3261 29C56.4635 29 56.4635 29 56.6009 29C59.7621 28.8626 61.6862 26.3886 62.236 22.8152L63.7479 10.7204H64.8474C65.8095 10.7204 67.0464 9.75829 67.3213 7.97156V7.4218ZM84.6388 7.14692C80.7905 7.14692 77.217 10.0332 76.1175 14.4313C75.018 18.8294 76.6673 24.1896 82.3024 24.1896C87.9374 24.1896 91.236 18.6919 91.236 14.1564C91.0986 9.62085 88.0749 7.14692 84.6388 7.14692ZM86.1507 15.3934C86.0133 17.455 85.0512 20.4787 82.5772 20.4787C80.1033 20.4787 80.5156 16.9052 80.6531 15.2559C80.9279 13.4692 81.89 10.8578 84.0891 10.8578C86.1507 10.8578 86.4256 13.1943 86.1507 15.3934ZM110.203 12.2322C110.203 12.2322 108.279 18.2796 108.141 18.8294C108.141 18.2796 106.629 7.4218 106.629 7.4218C103.331 7.4218 101.544 9.75829 100.719 12.2322C100.719 12.2322 98.3829 18.2796 98.2455 18.8294C98.2455 18.4171 97.8332 12.3697 97.8332 12.3697C97.6957 9.34597 94.8095 7.55924 92.6104 7.55924L95.3592 24.0521C98.7952 24.0521 100.719 21.7156 101.682 19.2417C101.682 19.2417 103.743 13.8815 103.881 13.6066C103.881 13.8815 105.392 24.0521 105.392 24.0521C108.828 24.0521 110.753 21.8531 111.715 19.5166L116.25 7.4218C112.814 7.4218 111.027 9.75829 110.203 12.2322ZM70.4825 0.137441L67.7336 22.6777L67.1839 25.4265C67.3213 25.4265 67.3213 25.4265 67.4588 25.4265C70.4825 25.4265 72.6815 22.6777 72.9564 19.3791L74.6057 6.45972C75.018 2.61137 72.5441 0.137441 70.4825 0.137441Z" fill="#1B1B1B"/>
</svg>
